<svg id="visual" viewBox="0 0 1920 1080" width="1920" height="1080" xmlns="http://www.w3.org/2000/svg" xmlns:xlink="http://www.w3.org/1999/xlink" version="1.1"><rect x="0" y="0" width="1920" height="1080" fill="#FFFFFF"></rect><defs><linearGradient id="grad1_0" x1="43.8%" y1="0%" x2="100%" y2="100%"><stop offset="14.444444444444446%" stop-color="#4facf7" stop-opacity="1"></stop><stop offset="85.55555555555554%" stop-color="#4facf7" stop-opacity="1"></stop></linearGradient></defs><defs><linearGradient id="grad1_1" x1="43.8%" y1="0%" x2="100%" y2="100%"><stop offset="14.444444444444446%" stop-color="#4facf7" stop-opacity="1"></stop><stop offset="85.55555555555554%" stop-color="#7fbcf9" stop-opacity="1"></stop></linearGradient></defs><defs><linearGradient id="grad1_2" x1="43.8%" y1="0%" x2="100%" y2="100%"><stop offset="14.444444444444446%" stop-color="#a3ccfb" stop-opacity="1"></stop><stop offset="85.55555555555554%" stop-color="#7fbcf9" stop-opacity="1"></stop></linearGradient></defs><defs><linearGradient id="grad1_3" x1="43.8%" y1="0%" x2="100%" y2="100%"><stop offset="14.444444444444446%" stop-color="#a3ccfb" stop-opacity="1"></stop><stop offset="85.55555555555554%" stop-color="#c4ddfc" stop-opacity="1"></stop></linearGradient></defs><defs><linearGradient id="grad1_4" x1="43.8%" y1="0%" x2="100%" y2="100%"><stop offset="14.444444444444446%" stop-color="#e2eefe" stop-opacity="1"></stop><stop offset="85.55555555555554%" stop-color="#c4ddfc" stop-opacity="1"></stop></linearGradient></defs><defs><linearGradient id="grad1_5" x1="43.8%" y1="0%" x2="100%" y2="100%"><stop offset="14.444444444444446%" stop-color="#e2eefe" stop-opacity="1"></stop><stop offset="85.55555555555554%" stop-color="#ffffff" stop-opacity="1"></stop></linearGradient></defs><defs><linearGradient id="grad2_0" x1="0%" y1="0%" x2="56.3%" y2="100%"><stop offset="14.444444444444446%" stop-color="#4facf7" stop-opacity="1"></stop><stop offset="85.55555555555554%" stop-color="#4facf7" stop-opacity="1"></stop></linearGradient></defs><defs><linearGradient id="grad2_1" x1="0%" y1="0%" x2="56.3%" y2="100%"><stop offset="14.444444444444446%" stop-color="#7fbcf9" stop-opacity="1"></stop><stop offset="85.55555555555554%" stop-color="#4facf7" stop-opacity="1"></stop></linearGradient></defs><defs><linearGradient id="grad2_2" x1="0%" y1="0%" x2="56.3%" y2="100%"><stop offset="14.444444444444446%" stop-color="#7fbcf9" stop-opacity="1"></stop><stop offset="85.55555555555554%" stop-color="#a3ccfb" stop-opacity="1"></stop></linearGradient></defs><defs><linearGradient id="grad2_3" x1="0%" y1="0%" x2="56.3%" y2="100%"><stop offset="14.444444444444446%" stop-color="#c4ddfc" stop-opacity="1"></stop><stop offset="85.55555555555554%" stop-color="#a3ccfb" stop-opacity="1"></stop></linearGradient></defs><defs><linearGradient id="grad2_4" x1="0%" y1="0%" x2="56.3%" y2="100%"><stop offset="14.444444444444446%" stop-color="#c4ddfc" stop-opacity="1"></stop><stop offset="85.55555555555554%" stop-color="#e2eefe" stop-opacity="1"></stop></linearGradient></defs><defs><linearGradient id="grad2_5" x1="0%" y1="0%" x2="56.3%" y2="100%"><stop offset="14.444444444444446%" stop-color="#ffffff" stop-opacity="1"></stop><stop offset="85.55555555555554%" stop-color="#e2eefe" stop-opacity="1"></stop></linearGradient></defs><g transform="translate(1920, 0)"><path d="M0 756C-54.6 711.3 -109.2 666.6 -176.5 658.8C-243.8 650.9 -323.8 679.9 -378 654.7C-432.2 629.5 -460.6 550.1 -487.9 487.9C-515.2 425.7 -541.5 380.7 -581.1 335.5C-620.7 290.3 -673.7 244.9 -705.1 188.9C-736.5 133 -746.3 66.5 -756 0L0 0Z" fill="#f1f6fe"></path><path d="M0 630C-45.5 592.8 -91 555.5 -147.1 549C-203.2 542.4 -269.8 566.6 -315 545.6C-360.2 524.6 -383.8 458.4 -406.6 406.6C-429.4 354.8 -451.2 317.3 -484.3 279.6C-517.3 241.9 -561.5 204.1 -587.6 157.4C-613.8 110.8 -621.9 55.4 -630 0L0 0Z" fill="#d3e5fd"></path><path d="M0 504C-36.4 474.2 -72.8 444.4 -117.7 439.2C-162.5 433.9 -215.9 453.3 -252 436.5C-288.1 419.7 -307.1 366.7 -325.3 325.3C-343.5 283.8 -361 253.8 -387.4 223.7C-413.8 193.5 -449.2 163.3 -470.1 126C-491 88.7 -497.5 44.3 -504 0L0 0Z" fill="#b4d4fc"></path><path d="M0 378C-27.3 355.7 -54.6 333.3 -88.3 329.4C-121.9 325.5 -161.9 340 -189 327.4C-216.1 314.8 -230.3 275.1 -244 244C-257.6 212.9 -270.7 190.4 -290.6 167.8C-310.4 145.1 -336.9 122.4 -352.6 94.5C-368.3 66.5 -373.1 33.2 -378 0L0 0Z" fill="#92c4fa"></path><path d="M0 252C-18.2 237.1 -36.4 222.2 -58.8 219.6C-81.3 217 -107.9 226.6 -126 218.2C-144.1 209.8 -153.5 183.4 -162.6 162.6C-171.7 141.9 -180.5 126.9 -193.7 111.8C-206.9 96.8 -224.6 81.6 -235 63C-245.5 44.3 -248.8 22.2 -252 0L0 0Z" fill="#69b4f8"></path><path d="M0 126C-9.1 118.6 -18.2 111.1 -29.4 109.8C-40.6 108.5 -54 113.3 -63 109.1C-72 104.9 -76.8 91.7 -81.3 81.3C-85.9 71 -90.2 63.5 -96.9 55.9C-103.5 48.4 -112.3 40.8 -117.5 31.5C-122.8 22.2 -124.4 11.1 -126 0L0 0Z" fill="#4facf7"></path></g><g transform="translate(0, 1080)"><path d="M0 -756C69 -751.3 137.9 -746.6 191.5 -714.8C245.1 -683 283.3 -624.1 344.5 -596.7C405.7 -569.3 489.8 -573.3 534.6 -534.6C579.4 -495.8 584.9 -414.2 607.9 -351C631 -287.8 671.7 -242.8 699.3 -187.4C726.9 -131.9 741.5 -66 756 0L0 0Z" fill="#f1f6fe"></path><path d="M0 -630C57.5 -626.1 114.9 -622.2 159.6 -595.7C204.3 -569.2 236.1 -520.1 287.1 -497.2C338.1 -474.4 408.1 -477.8 445.5 -445.5C482.8 -413.2 487.4 -345.2 506.6 -292.5C525.9 -239.8 559.8 -202.4 582.8 -156.2C605.8 -109.9 617.9 -55 630 0L0 0Z" fill="#d3e5fd"></path><path d="M0 -504C46 -500.9 92 -497.7 127.7 -476.5C163.4 -455.3 188.9 -416.1 229.7 -397.8C270.4 -379.5 326.5 -382.2 356.4 -356.4C386.2 -330.5 389.9 -276.2 405.3 -234C420.7 -191.8 447.8 -161.9 466.2 -124.9C484.6 -88 494.3 -44 504 0L0 0Z" fill="#b4d4fc"></path><path d="M0 -378C34.5 -375.6 69 -373.3 95.8 -357.4C122.6 -341.5 141.7 -312.1 172.2 -298.3C202.8 -284.6 244.9 -286.7 267.3 -267.3C289.7 -247.9 292.4 -207.1 304 -175.5C315.5 -143.9 335.9 -121.4 349.7 -93.7C363.5 -66 370.7 -33 378 0L0 0Z" fill="#92c4fa"></path><path d="M0 -252C23 -250.4 46 -248.9 63.8 -238.3C81.7 -227.7 94.4 -208 114.8 -198.9C135.2 -189.8 163.3 -191.1 178.2 -178.2C193.1 -165.3 195 -138.1 202.6 -117C210.3 -95.9 223.9 -80.9 233.1 -62.5C242.3 -44 247.2 -22 252 0L0 0Z" fill="#69b4f8"></path><path d="M0 -126C11.5 -125.2 23 -124.4 31.9 -119.1C40.9 -113.8 47.2 -104 57.4 -99.4C67.6 -94.9 81.6 -95.6 89.1 -89.1C96.6 -82.6 97.5 -69 101.3 -58.5C105.2 -48 112 -40.5 116.6 -31.2C121.2 -22 123.6 -11 126 0L0 0Z" fill="#4facf7"></path></g></svg>