<svg width="16" height="16" viewBox="0 0 16 16" fill="none" xmlns="http://www.w3.org/2000/svg">
<path d="M3.61659 13H12.3833L11.3333 5.66663H4.66659L3.61659 13ZM7.99992 4.66663C8.28881 4.66663 8.5277 4.5694 8.71659 4.37496C8.90547 4.18051 8.99992 3.9444 8.99992 3.66663C8.99992 3.37774 8.90547 3.13885 8.71659 2.94996C8.5277 2.76107 8.28881 2.66663 7.99992 2.66663C7.72214 2.66663 7.48603 2.76107 7.29159 2.94996C7.09714 3.13885 6.99992 3.37774 6.99992 3.66663C6.99992 3.9444 7.09714 4.18051 7.29159 4.37496C7.48603 4.5694 7.72214 4.66663 7.99992 4.66663ZM9.73325 4.66663H11.3333C11.5888 4.66663 11.811 4.74718 11.9999 4.90829C12.1888 5.0694 12.2999 5.27774 12.3333 5.53329L13.3666 12.8666C13.411 13.1666 13.336 13.4305 13.1416 13.6583C12.9471 13.8861 12.6944 14 12.3833 14H3.61659C3.30547 14 3.0527 13.8861 2.85825 13.6583C2.66381 13.4305 2.58881 13.1666 2.63325 12.8666L3.66659 5.53329C3.69992 5.27774 3.81103 5.0694 3.99992 4.90829C4.18881 4.74718 4.41103 4.66663 4.66659 4.66663H6.26659C6.1777 4.51107 6.11103 4.35274 6.06659 4.19163C6.02214 4.03051 5.99992 3.85551 5.99992 3.66663C5.99992 3.11107 6.19436 2.63885 6.58325 2.24996C6.97214 1.86107 7.44436 1.66663 7.99992 1.66663C8.55547 1.66663 9.0277 1.86107 9.41659 2.24996C9.80547 2.63885 9.99992 3.11107 9.99992 3.66663C9.99992 3.85551 9.9777 4.03051 9.93325 4.19163C9.88881 4.35274 9.82214 4.51107 9.73325 4.66663ZM3.61659 13H12.3833H3.61659Z" fill="#1D1D1D"/>
</svg>
